<svg xmlns="http://www.w3.org/2000/svg" viewBox="0 0 180 220">
  <rect width="180" height="220" fill="#fff"/>
  <g fill="none" stroke="#111" stroke-width="7" stroke-linecap="round" stroke-linejoin="round">
    <path d="M29 67c5-31 31-49 61-49 31 0 56 18 62 49"/>
    <path d="M26 75c29 1 54 0 80-5 17-3 31-2 48 3"/>
    <path d="M76 70c7-8 19-8 27-1-7 8-18 10-27 1Z"/>
    <path d="M43 82c-2 23 1 53 12 72 9 16 22 24 35 24s27-8 36-24c11-20 14-48 11-72"/>
    <path d="M22 188c4-17 17-28 34-30"/>
    <path d="M158 188c-4-17-17-28-34-30"/>
    <path d="M20 190c8-13 18-18 32-17l7 29H25Z"/>
    <path d="M160 190c-8-13-18-18-32-17l-7 29h34Z"/>
    <path d="M58 174c18 12 46 12 64 0"/>
    <path d="M67 117h15"/>
    <path d="M103 117h15"/>
    <path d="M78 147c8 2 17 2 25 0"/>
  </g>
  <g fill="none" stroke="#19bf2b" stroke-width="7" stroke-linecap="round">
    <path d="M54 31c-8 8-13 18-14 29"/>
    <path d="M76 25c-4 11-5 22-4 34"/>
    <path d="M99 24c2 12 2 23 1 35"/>
    <path d="M121 29c7 9 12 19 14 31"/>
    <path d="M45 86c-10 16-15 34-17 54"/>
    <path d="M137 85c9 17 14 35 16 55"/>
  </g>
  <g fill="none" stroke="#e23a34" stroke-width="7" stroke-linecap="round">
    <path d="M58 184v31"/><path d="M74 181v34"/><path d="M90 184v31"/><path d="M106 181v34"/><path d="M122 184v31"/>
  </g>
</svg>
